<link rel="stylesheet" type="text/css" href="//fonts.googleapis.com/css?family=Orbitron" />
<svg version="1.1" xmlns="http://www.w3.org/2000/svg" xmlns:xlink="http://www.w3.org/1999/xlink" preserveAspectRatio="xMidYMid meet" viewBox="511 190 226 219"><g data-item-type="image" data-item="Image" data-logo-item="" id="logo__item--logo_0" class="logo__item">
    <g class="logo__item__inner" transform="translate(545.0573534982124 234) scale(1.4531129608928226 1.4531129608928226) rotate(0 0 0)">
        
<g>
	<g>
		<radialGradient id="SVGID_1_" cx="43.3892" cy="27.9434" r="73.0519" gradientUnits="userSpaceOnUse">
			<stop offset="0" style="stop-color:#919395"></stop>
			<stop offset="0.6727" style="stop-color:#424243"></stop>
			<stop offset="1" style="stop-color:#272525"></stop>
		</radialGradient>
		<path fill="url(#SVGID_1_)" d="M22.558,10.924c19.106,0,38.218-0.012,57.331,0c0.006,12.054-0.012,24.108,0.006,36.15    c0.1,6.409-2.142,12.808-6.105,17.834c-5.274,6.83-13.814,11.078-22.462,10.942c-7.026,0.148-14.01-2.606-19.192-7.324    c0.062-2.371-0.074-4.755,0.112-7.139c4.557,5.769,11.665,9.695,19.118,9.461c10.152,0.198,19.724-7.139,22.565-16.821    c1.463-4.533,1.044-9.337,1.092-14.018c0-8.027-0.006-16.055,0-24.071c-15.814-0.024-31.635-0.012-47.463-0.012    c-0.012,3.199-0.012,6.385,0.007,9.584c-2.02,2.261-3.489,4.916-4.947,7.546C22.458,25.683,22.594,18.297,22.558,10.924z" data-part-id="logo__item--logo_0__0"></path>
		<radialGradient id="SVGID_2_" cx="43.3926" cy="27.9536" r="73.0457" gradientUnits="userSpaceOnUse">
			<stop offset="0" style="stop-color:#919395"></stop>
			<stop offset="0.6727" style="stop-color:#424243"></stop>
			<stop offset="1" style="stop-color:#272525"></stop>
		</radialGradient>
		<path fill="url(#SVGID_2_)" d="M29.58,28.005c5.224-6.151,13.171-9.905,21.249-9.917c7.108-0.186,14.172,2.531,19.47,7.25    c0,2.458,0,4.916,0,7.386c-4.593-6.2-12.281-10.028-20.02-9.633c-9.886,0.259-19.013,7.472-21.73,16.945    c-1.352,4.002-0.938,8.25-0.994,12.399c0,6.126,0,12.252,0,18.378c7.923,5.509,15.79,11.065,23.714,16.562    c7.922-5.558,15.862-11.066,23.755-16.66c0.081-0.964-0.283-2.088,0.426-2.89c1.792-2.224,3.329-4.645,4.471-7.263    c-0.061,4.298-0.024,8.596-0.006,12.895C70.41,80.174,60.807,86.757,51.327,93.5c-9.639-6.607-19.186-13.363-28.776-20.058    c-0.012-8.818,0.013-17.637-0.012-26.455C22.526,40.096,25.021,33.192,29.58,28.005z" data-part-id="logo__item--logo_0__1"></path>
	</g>
	<radialGradient id="SVGID_3_" cx="56.8857" cy="41.417" r="21.426" gradientUnits="userSpaceOnUse">
		<stop offset="0" style="stop-color:#00ABEB"></stop>
		<stop offset="0.029" style="stop-color:#22AAE7"></stop>
		<stop offset="0.0603" style="stop-color:#3FA8E3"></stop>
		<stop offset="0.0914" style="stop-color:#53A8E0"></stop>
		<stop offset="0.122" style="stop-color:#60A7DF"></stop>
		<stop offset="0.1515" style="stop-color:#64A7DE"></stop>
		<stop offset="0.3273" style="stop-color:#4674B7"></stop>
		<stop offset="0.5212" style="stop-color:#333B8B"></stop>
		<stop offset="0.7576" style="stop-color:#211C51"></stop>
		<stop offset="1" style="stop-color:#171043"></stop>
	</radialGradient>
	<path fill="url(#SVGID_3_)" d="M63.449,42.27c-1.413-3.804-4.601-6.867-8.397-8.053c-4.002-1.149-8.54-0.407-11.844,2.173   c-4.829,3.681-6.527,10.671-3.964,16.167c2.334,5.348,8.516,8.633,14.254,7.534c3.271-0.52,6.218-2.421,8.262-4.989   C64.315,51.619,65.229,47,63.449,42.27z M55.874,39.787c1.753-1.531,4.001,1.174,2.302,2.681   C56.342,44.11,54.12,41.318,55.874,39.787z M46.505,46.419c0.112-1.68,1.192-3.199,2.644-3.915c1.79-0.865,4.219-0.469,5.576,1.161   c1.841,1.828,1.891,5.101,0.012,6.769c-0.907,0.814-2.117,1.432-3.402,1.358C48.55,51.915,46.067,49.198,46.505,46.419z" data-part-id="logo__item--logo_0__2"></path>
</g>

    </g>
</g><g data-item-type="shape" data-item="Shape" data-logo-item="" id="logo__item--shape_1" class="logo__item">
    <g class="logo__item__inner" transform="translate(487 186.04999923706055) scale(2.179103940546319 2.179103940546319) rotate(0 0 0)">
        
<g>
	<path fill="#231F20" d="M84.4,25.5c0,0-19.5-4-32.9-21.9c0,0-10.3,13.4-34.1,16.4c0,0,3,52.9,43.2,75.5c0,0-29.2-20.1-36.5-70   c0,0,17-1.2,26.8-12.2C51,13.3,65,24.2,84.4,25.5z" data-part-id="logo__item--shape_1__0"></path>
</g>

    </g>
</g>
            <!-- <defs>
                    <style type="text/css">
    @font-face {
      font-family: Orbitron;
      src: url('//fonts.googleapis.com/css?family=Orbitron:400,500,600,700,800,900');
    }
        svg{
        font-family: Orbitron;
    }
                </style>
            </defs> -->
<g data-item-type="text" data-item="Business" id="logo__item--business" class="logo__item">
                <g class="logo__item__inner" transform="translate(514 406.8660563002929) scale(1.2640449438202248 1.2640449438202248) rotate(0 0 0)">
                    <text data-part-id="logo__item--business" dy="0" dominant-baseline="auto" alignment-baseline="auto" font-family="Orbitron" font-size="30px" fill="#5e4f6e" letter-spacing="0" font-weight="normal" font-style="normal" data-font-family="Orbitron" data-font-weight="normal" data-font-style="normal" data-ttf-url="/builder_assets/fontsttf/font-montserrat-bold-normal.ttf" data-font-filename="orbitron-normal-normal">1am 1mran</text>
                </g>
            </g>

</svg>
